<svg xmlns="http://www.w3.org/2000/svg" id="Layer_2" viewBox="0 0 420.7 416.2">
  <style>
    .st0{fill:#FFFFFF;} .st1{fill:#444444;}
  </style>
  <path id="Inside_Fill" d="M67 63c-.1 94.1-.2 188.2-.4 282.3 97.2.2 194.4.3 291.5.5.1-17.9.1-35.8.2-53.7H420l.1-62.2-62 .1.3-167H67z" class="st0"/>
  <path id="Outside_Path" d="M.3 0c140.2.1 279.8.1 420.8.2v229.6c-11-.1-21.3-.1-31.9-.1-10.3 0-20.7.1-30.9.2l.1-166.9H67l-.3 282.3c97.3.2 194.7.3 292 .5-.1-17.9 0-35.8-.1-53.7 20.8.1 41.5.2 62.5.2V416.2c-71 .1-140.4.1-210.5 0S70.4 416 .3 415.7C.2 277.1.3 138.6.3 0z" class="st1"/>
  <path id="Inside_L" d="M134.1 97H200l-1 133h89.5c.1 20-.1 40.6-.1 61.1-51.4.2-102.4.2-154.4.4V97z" class="st1"/>
</svg>
