<?xml version="1.0" encoding="utf-8"?>
<!-- Generator: Adobe Illustrator 19.2.1, SVG Export Plug-In . SVG Version: 6.00 Build 0)  -->
<svg version="1.1" id="Layer_2" xmlns="http://www.w3.org/2000/svg" xmlns:xlink="http://www.w3.org/1999/xlink" x="0px" y="0px"
	 viewBox="0 0 420.9 416.2" style="enable-background:new 0 0 420.9 416.2;" xml:space="preserve">
<style type="text/css">
	.st0{fill:#FFFFFF;stroke:#FFFFFF;stroke-miterlimit:10;}
	.st1{fill:#444444;}
</style>
<path id="middle" class="st0" d="M65.8,60.5c-0.1,96-0.2,190.2-0.4,285.5c97.7,0.2,195.4,1.1,293.1,1.2c0.1-18.2,0.1-36.7,0.2-53.7
	h62l0.1-64.1l-62.4,0.2l0.2-169.1H65.8z"/>
<path id="outside_1_" class="st1" d="M0.1,0c140.2,0.1,279.8,0.1,420.8,0.2c0,76.5,0,153.1,0,229.6c-11-0.1-21.3-0.1-31.9-0.1
	c-10.3,0-20.7,0.1-30.9,0.2L358.2,63H66.8c-0.1,94.1-0.2,188.2-0.3,282.3c97.3,0.2,194.7,0.3,292,0.5c-0.1-17.9,0-35.8-0.1-53.7
	c20.8,0.1,41.5,0.2,62.5,0.2c0,18.8,0,37.6,0,56.3c0,22.5,0,45.1,0,67.6c-46,0.1-91.4,0.1-136.7,0.1c-22.5,0-53.3,0-73.9-0.1
	c-98-0.1-199.4-0.2-210.8-0.2C-0.3,277.3-0.1,138.7,0.1,0z"/>
<path id="center" class="st1" d="M133.9,97h65.9l-1,133h89.5c0.1,20-0.1,40.6-0.1,61.1c-51.4,0.2-102.4,0.2-154.4,0.4V97z"/>
</svg>
