<?xml version="1.0" encoding="utf-8"?>
<!-- Generator: Adobe Illustrator 19.2.1, SVG Export Plug-In . SVG Version: 6.00 Build 0)  -->
<svg version="1.1" id="Layer_2" xmlns="http://www.w3.org/2000/svg" xmlns:xlink="http://www.w3.org/1999/xlink" x="0px" y="0px"
	 viewBox="0 0 420.1 406.8" style="enable-background:new 0 0 420.1 406.8;" xml:space="preserve">
<style type="text/css">
	.st0{fill:#FFFFFF;}
</style>
<polygon id="Inside_Fill" class="st0" points="66.9,63 66.8,355 358,355 358.3,292 420,292 420.1,229.8 358.1,229.9 358.3,63 "/>
<path id="Outside_Path" d="M0,0h419.8c0.1,76.6,0.2,153.2,0.3,229.8c-10.4-0.1-20.8-0.1-31.2-0.1c-10.3,0-20.6,0.1-30.8,0.2
	L358.3,63H66.9l-0.1,292h291.3l0.2-63h61.5c0.1,38-0.1,76.3,0,114.6c-70,0.2-140.1,0.2-210.1,0.2c-69.9,0-139.8-0.1-209.8-0.3V0z"/>
<path id="Inside_L" d="M134,97h65.9l-1,133h89.5c0.1,20-0.1,40.6-0.1,61.1c-51.4,0.2-102.4,0.2-154.4,0.4V97z"/>
</svg>
